# xmcd CD database file
#
# Track frame offsets:
#	150
#	26942
#	55582
#	86507
#	113257
#	144375
#	168372
#	203297
#	222880
#	249685
#	275557
#	298870
#
# Disc length: 4265 seconds
#
# Revision: 1
# Processed by: cddbd v1.5.1PL2 Copyright (c) Steve Scherf et al.
# Submitted via: CDex 1.51
#
DISCID=a710a70c
DTITLE=Lou Donaldson - The Complete Blue Note Sessions 1957-60 CD 5
DYEAR=2002
DGENRE=Jazz
TTITLE0=Caravan
TTITLE1=Old Folks
TTITLE2=That Good Old Feeling
TTITLE3=Move It
TTITLE4=There Is No Greater Love
TTITLE5=L. D. Blues
TTITLE6=Stella by Starlight
TTITLE7=L. D. Blues (fast version)
TTITLE8=Lou's Blues
TTITLE9=Be My Love
TTITLE10=Idaho
TTITLE11=The Nearness of You
EXTD=YEAR: 2002
EXTT0=
EXTT1=
EXTT2=
EXTT3=
EXTT4=
EXTT5=
EXTT6=
EXTT7=
EXTT8=
EXTT9=
EXTT10=
EXTT11=
PLAYORDER=
